<svg id="Layer_1" viewBox="0 0 512 512" xmlns="http://www.w3.org/2000/svg" data-name="Layer 1"><g><circle cx="384.19" cy="102.89" fill="#c49100" r="22.97"/><path d="m384.19 140.87c-20.94 0-37.97-17.03-37.97-37.97s17.03-37.97 37.97-37.97 37.97 17.03 37.97 37.97-17.03 37.97-37.97 37.97zm0-45.95c-4.4 0-7.97 3.58-7.97 7.97s3.58 7.97 7.97 7.97 7.97-3.58 7.97-7.97-3.58-7.97-7.97-7.97z" fill="#202728"/></g><g><path d="m387.59 263.41c-26.75 20.93-59.58 27.61-83.76-29.59 0 0 29.95-30.87 48.77-92.02l45.18 10.38s-17.96 78.46-10.19 111.23z" fill="#c49100"/><path d="m387.58 278.42c-6.79 0-12.95-4.65-14.58-11.54-6.44-27.19 2.01-77.9 7.06-103.37l-17.51-4.02c-19.61 55.14-46.71 83.52-47.94 84.79-5.77 5.95-15.27 6.09-21.21.32-5.93-5.76-6.09-15.23-.36-21.17.29-.3 27.85-29.56 45.23-86.02 2.31-7.51 10.04-11.97 17.7-10.21l45.18 10.38c8.07 1.85 13.11 9.9 11.26 17.97-4.77 20.89-15.92 80.37-10.22 104.42 1.91 8.06-3.08 16.14-11.14 18.05-1.16.28-2.33.41-3.47.41z" fill="#202728"/></g><g><circle cx="127.81" cy="102.89" fill="#c49100" r="22.97"/><path d="m89.84 102.89c0-20.94 17.03-37.97 37.97-37.97s37.97 17.03 37.97 37.97-17.03 37.97-37.97 37.97-37.97-17.03-37.97-37.97zm30 0c0 4.4 3.58 7.97 7.97 7.97s7.97-3.58 7.97-7.97-3.58-7.97-7.97-7.97-7.97 3.58-7.97 7.97z" fill="#202728"/></g><g><path d="m124.41 263.41c26.75 20.93 59.58 27.61 83.76-29.59 0 0-29.95-30.87-48.77-92.02l-45.18 10.38s17.96 78.46 10.19 111.23z" fill="#c49100"/><path d="m124.42 278.42c6.79 0 12.95-4.65 14.58-11.54 6.44-27.19-2.01-77.9-7.06-103.37l17.51-4.02c19.61 55.14 46.71 83.52 47.94 84.79 5.77 5.95 15.27 6.09 21.21.32 5.93-5.76 6.09-15.23.36-21.17-.29-.3-27.85-29.56-45.23-86.02-2.31-7.51-10.04-11.97-17.7-10.21l-45.18 10.38c-8.07 1.85-13.11 9.9-11.26 17.97 4.77 20.89 15.92 80.37 10.22 104.42-1.91 8.06 3.08 16.14 11.14 18.05 1.16.28 2.33.41 3.47.41z" fill="#202728"/></g><path d="m478.65 227.48-50.43 175.83c-5.56 17.15-21.53 28.77-39.56 28.77h-265.32c-.26 0-.51 0-.76 0-17.72-.32-33.32-11.85-38.8-28.76l-50.43-175.83 43.78-19.92s7.33 12.44 18.89 26.9c17.07 21.35 43.39 47.12 69 43.82 24.11-3.11 47.6-31.98 62.18-114.51h57.6c2.16 12.2 4.51 23.24 7.03 33.18 3.67 14.5 7.7 26.7 12 36.87 24.18 57.2 57.01 50.52 83.76 29.59 26.66-20.85 47.28-55.85 47.28-55.85l43.78 19.92z" fill="#f5bd02"/><path d="m291.83 196.95h-28.12c-6.28 0-11.81 4.11-13.62 10.12-7.14 23.67-29.94 81.03-84.31 86.21l-.76-15c24.11-3.11 47.6-31.98 62.18-114.51h57.6c2.16 12.2 4.51 23.24 7.03 33.18z" fill="#fff"/><g><circle cx="256" cy="118.67" fill="#f5bd02" r="26.02"/><path d="m256 159.69c-22.62 0-41.02-18.4-41.02-41.02s18.4-41.02 41.02-41.02 41.02 18.4 41.02 41.02-18.4 41.02-41.02 41.02zm0-52.05c-6.08 0-11.02 4.95-11.02 11.02s4.95 11.02 11.02 11.02 11.02-4.95 11.02-11.02-4.95-11.02-11.02-11.02z" fill="#202728"/></g><g><circle cx="474.73" cy="183.6" fill="#f5bd02" r="22.97"/><path d="m474.73 221.57c-20.94 0-37.97-17.03-37.97-37.97s17.03-37.97 37.97-37.97 37.97 17.03 37.97 37.97-17.03 37.97-37.97 37.97zm0-45.95c-4.4 0-7.97 3.58-7.97 7.97s3.58 7.97 7.97 7.97 7.97-3.58 7.97-7.97-3.58-7.97-7.97-7.97z" fill="#202728"/></g><g><circle cx="37.27" cy="183.6" fill="#f5bd02" r="22.97"/><path d="m37.27 221.57c-20.94 0-37.97-17.03-37.97-37.97s17.03-37.97 37.97-37.97 37.97 17.03 37.97 37.97-17.03 37.97-37.97 37.97zm0-45.95c-4.4 0-7.97 3.58-7.97 7.97s3.58 7.97 7.97 7.97 7.97-3.58 7.97-7.97-3.58-7.97-7.97-7.97z" fill="#202728"/></g><g fill="#202728"><path d="m256 390.95c-8.28 0-15-6.72-15-15v-36.47c0-8.28 6.72-15 15-15s15 6.72 15 15v36.47c0 8.28-6.72 15-15 15z"/><path d="m378.17 390.95c-1.98 0-3.99-.39-5.92-1.22-7.61-3.27-11.13-12.1-7.85-19.71l9.41-21.88c3.27-7.61 12.1-11.13 19.71-7.85s11.13 12.1 7.85 19.71l-9.41 21.88c-2.44 5.68-7.97 9.08-13.79 9.08z"/><path d="m133.83 390.95c-5.81 0-11.34-3.4-13.79-9.08l-9.41-21.88c-3.27-7.61.24-16.43 7.85-19.71 7.61-3.27 16.43.24 19.71 7.85l9.41 21.88c3.27 7.61-.24 16.43-7.85 19.71-1.93.83-3.94 1.22-5.92 1.22z"/></g><path d="m122.58 432.07c-17.72-.32-33.32-11.85-38.8-28.76l-50.43-175.83 43.78-19.92s7.33 12.44 18.89 26.9c-11.68 8.4-22.36 21.55-17.78 40.36z" fill="#fff"/><path d="m484.86 213.83-43.77-19.92c-6.98-3.18-15.23-.57-19.13 6.03-12.74 21.55-45.74 63.63-70.44 63.62-1.22 0-2.42-.1-3.6-.31-8.21-1.5-16.08-8.65-23.39-21.27-10.2-17.62-18.59-44.81-24.96-80.82-1.26-7.17-7.49-12.39-14.77-12.39h-57.6c-7.28 0-13.51 5.22-14.77 12.39-6.12 34.6-14.1 61.05-23.77 78.7-.39.72-.79 1.43-1.19 2.12-7.31 12.62-15.18 19.77-23.39 21.27-5.51 1-11.55-.42-17.75-3.5-21.89-10.83-45.87-42.19-56.28-59.8-3.9-6.61-12.15-9.22-19.14-6.04l-43.77 19.92c-6.76 3.08-10.25 10.65-8.21 17.79l18.66 65.04c2.62 9.15 13 13.57 21.42 9.13 6.28-3.31 9.38-10.58 7.42-17.4l-15.09-52.6 20.21-9.2c5.35 7.82 13.32 18.65 23 29.26 7.19 7.88 14.31 14.54 21.33 19.96 11.26 8.69 22.28 14.21 32.99 16.52 6.98 1.51 13.83 1.66 20.53.45 33.04-5.97 56.07-43.31 70.24-114h32.72c14.17 70.69 37.2 108.03 70.24 114 23.44 4.23 48.63-8.19 74.85-36.93 9.68-10.61 17.65-21.44 23-29.26l20.21 9.2-46.79 163.12c-3.62 10.88-13.72 18.18-25.21 18.18h-265.32c-11.49 0-21.59-7.3-25.21-18.18l-14.8-51.59c-2.62-9.15-12.99-13.57-21.41-9.13-6.28 3.31-9.38 10.58-7.42 17.41l14.88 51.86c.04.16.09.33.14.49 7.58 23.41 29.21 39.15 53.83 39.15h265.32c24.62 0 46.25-15.74 53.83-39.15.05-.16.1-.33.14-.49l50.44-175.82c2.04-7.14-1.45-14.71-8.21-17.79z" fill="#202728"/></svg>