<svg enable-background="new 0 0 32 32" height="512" viewBox="0 0 32 32" width="512" xmlns="http://www.w3.org/2000/svg"><g id="Layer_2"><path d="m31 16c0 1.849-2.991 3.09-3.658 4.697-.691 1.667.521 4.653-.736 5.909-1.256 1.256-4.242.044-5.909.735-1.607.668-2.848 3.659-4.697 3.659s-3.09-2.991-4.697-3.658c-1.667-.691-4.653.521-5.909-.736-1.256-1.256-.044-4.242-.735-5.909-.668-1.607-3.659-2.848-3.659-4.697s2.991-3.09 3.658-4.697c.691-1.667-.521-4.653.735-5.909s4.242-.044 5.909-.735c1.608-.668 2.849-3.659 4.698-3.659s3.09 2.991 4.697 3.658c1.667.691 4.653-.521 5.909.735s.044 4.242.735 5.909c.668 1.608 3.659 2.849 3.659 4.698z" fill="#ffee58"/><path d="m31 16c0 1.09-1.04 1.97-2.03 2.84.02-.11.03-.22.03-.34 0-1.91-3.09-3.19-3.78-4.85-.71-1.73.54-4.81-.76-6.11s-4.38-.05-6.11-.76c-1.66-.69-2.94-3.78-4.85-3.78-.12 0-.23.01-.34.03.87-.99 1.75-2.03 2.84-2.03 1.85 0 3.09 2.99 4.7 3.66 1.66.69 4.65-.52 5.91.73 1.25 1.26.04 4.25.73 5.91.67 1.61 3.66 2.85 3.66 4.7z" fill="#fffbd7"/><path d="m19.04 28.73c-.93 1.05-1.86 2.27-3.04 2.27-1.85 0-3.09-2.99-4.7-3.66-1.66-.69-4.65.52-5.91-.73-1.25-1.26-.04-4.25-.73-5.91-.67-1.61-3.66-2.85-3.66-4.7s2.99-3.09 3.66-4.7c.69-1.66-.52-4.65.73-5.91.75-.74 2.11-.62 3.43-.54-.14 1.42.33 3.27-.16 4.45-.67 1.61-3.66 2.85-3.66 4.7s2.99 3.09 3.66 4.7c.69 1.66-.52 4.65.73 5.91 1.26 1.25 4.25.04 5.91.73 1.31.55 2.38 2.64 3.74 3.39z" fill="#ffb300"/></g><g id="Layer_1"><path d="m29.711 12.483c-.615-.538-1.25-1.094-1.445-1.563-.212-.513-.158-1.387-.106-2.232.085-1.394.182-2.974-.846-4.001s-2.605-.932-4-.845c-.847.051-1.72.105-2.233-.107-.47-.195-1.025-.83-1.563-1.445-.94-1.073-2.004-2.29-3.518-2.29s-2.578 1.217-3.517 2.289c-.538.615-1.094 1.25-1.563 1.445-.514.212-1.388.159-2.232.106-1.392-.085-2.973-.181-4.001.847-1.027 1.027-.931 2.606-.845 4 .052.846.105 1.721-.107 2.233-.195.47-.83 1.025-1.445 1.563-1.073.939-2.29 2.003-2.29 3.517s1.217 2.578 2.289 3.517c.615.538 1.25 1.094 1.445 1.563.212.513.158 1.387.106 2.232-.085 1.394-.182 2.974.846 4.001s2.605.932 4 .845c.847-.051 1.72-.106 2.233.107.47.195 1.025.83 1.563 1.445.94 1.073 2.004 2.29 3.518 2.29s2.578-1.217 3.517-2.289c.538-.615 1.094-1.25 1.563-1.445.511-.212 1.387-.159 2.232-.106 1.392.086 2.973.183 4.001-.846 1.027-1.027.931-2.606.845-4-.052-.846-.105-1.721.107-2.233.195-.47.83-1.025 1.445-1.563 1.073-.94 2.29-2.004 2.29-3.518s-1.217-2.578-2.289-3.517zm-1.317 5.529c-.787.688-1.602 1.4-1.976 2.303-.39.939-.321 2.049-.256 3.121.06.972.128 2.073-.263 2.464-.39.391-1.493.321-2.465.264-1.071-.065-2.181-.134-3.12.255-.902.374-1.614 1.188-2.303 1.976-.691.789-1.405 1.605-2.011 1.605s-1.32-.816-2.012-1.606c-.688-.787-1.4-1.602-2.303-1.976-.579-.24-1.224-.307-1.884-.307-.41 0-.826.025-1.237.051-.975.06-2.074.128-2.464-.263-.391-.391-.323-1.492-.264-2.465.066-1.072.134-2.181-.255-3.12-.374-.902-1.188-1.614-1.976-2.303-.789-.691-1.605-1.405-1.605-2.011s.816-1.32 1.606-2.012c.787-.688 1.602-1.4 1.976-2.303.39-.939.321-2.049.256-3.121-.06-.971-.128-2.073.263-2.463s1.492-.321 2.465-.264c1.072.067 2.181.136 3.12-.255.902-.374 1.614-1.188 2.303-1.976.691-.79 1.405-1.606 2.011-1.606s1.32.816 2.012 1.606c.688.787 1.4 1.602 2.303 1.976.938.39 2.048.321 3.121.256.973-.061 2.073-.129 2.464.263.391.391.323 1.492.264 2.465-.066 1.072-.134 2.181.255 3.12.374.902 1.188 1.614 1.976 2.303.789.691 1.605 1.405 1.605 2.011s-.816 1.32-1.606 2.012z"/><path d="m9.233 18.052-.907.423-.423-.906.906-.423c.5-.233.717-.828.483-1.329-.233-.5-.828-.715-1.329-.483l-1.813.846c-.5.233-.717.828-.483 1.329 0 0 1.267 2.717 1.269 2.721 0 0 1.266 2.714 1.267 2.716.208.446.737.668 1.205.528.571-.171.858-.836.607-1.374l-.845-1.812.907-.423c.5-.233.717-.828.483-1.329-.232-.5-.827-.717-1.327-.484z"/><path d="m16.881 18.287-1.794-1.092c.537-.715.683-1.689.28-2.555-.282-.605-.783-1.064-1.411-1.293-.629-.229-1.308-.199-1.91.084 0 0-1.359.633-1.361.634-.5.233-.717.828-.483 1.329 0 0 2.534 5.433 2.536 5.437.212.454.757.68 1.23.522.556-.185.829-.839.582-1.368l-.506-1.085 1.799 1.095c.162.099.342.145.518.146.981.001 1.359-1.343.52-1.854zm-3.61-3.058c.408.149.437.736.042.921 0 0-.453.211-.454.212l-.423-.906s.455-.212.455-.212c.122-.058.259-.059.38-.015z"/><path d="m20.471 16.122-.907.423-.423-.907s.904-.422.907-.423c1.156-.539.336-2.363-.846-1.813l-.906.422-.422-.906s.905-.422.906-.422c1.146-.534.343-2.363-.846-1.813l-1.813.845c-.5.233-.717.828-.483 1.329l2.535 5.438c.17.363.53.577.907.577.142 0 .285-.03.422-.094 0 0 1.809-.844 1.813-.846 1.16-.538.336-2.357-.844-1.81z"/><path d="m25.002 14.009-.906.423-.423-.906s.904-.421.907-.423c1.156-.539.336-2.359-.846-1.813l-.906.423-.423-.907s.905-.422.906-.422c1.159-.54.335-2.36-.846-1.813l-1.813.845c-.5.233-.717.828-.483 1.329 0 0 1.267 2.717 1.27 2.723l1.266 2.715c.17.363.53.577.907.577.142 0 .285-.03.422-.094 0 0 1.808-.843 1.812-.846 1.159-.539.336-2.359-.844-1.811z"/></g></svg>