<svg id="Flat" height="512" viewBox="0 0 16 16" width="512" xmlns="http://www.w3.org/2000/svg"><path d="m13.93 5.78a.5608.5608 0 0 1 -.17-.4v-1.58a1.5619 1.5619 0 0 0 -1.56-1.56h-1.58a.5613.5613 0 0 1 -.4-.17l-1.11-1.11a1.5755 1.5755 0 0 0 -2.22 0l-1.11 1.11a.5613.5613 0 0 1 -.4.17h-1.58a1.5619 1.5619 0 0 0 -1.56 1.56v1.58a.5608.5608 0 0 1 -.17.4l-1.11 1.11a1.5751 1.5751 0 0 0 0 2.22l1.11 1.11a.5608.5608 0 0 1 .17.4v1.58a1.5619 1.5619 0 0 0 1.56 1.56h1.58a.5613.5613 0 0 1 .4.17l1.11 1.11a1.5692 1.5692 0 0 0 2.22 0l1.11-1.11a.5613.5613 0 0 1 .4-.17h1.58a1.5619 1.5619 0 0 0 1.56-1.56v-1.58a.5608.5608 0 0 1 .17-.4l1.11-1.11a1.5751 1.5751 0 0 0 0-2.22zm-3.58 1.24-2.66 2.67a.5195.5195 0 0 1 -.71 0l-1.33-1.34a.495.495 0 0 1 .7-.7l.98.98 2.32-2.32a.5011.5011 0 0 1 .7 0 .4949.4949 0 0 1 0 .71z" fill="#5ecbf1"/><path d="m13.93 5.78a.5608.5608 0 0 1 -.17-.4v-1.58a1.5619 1.5619 0 0 0 -1.56-1.56h-1.58a.5613.5613 0 0 1 -.4-.17l-1.11-1.11a1.5651 1.5651 0 0 0 -1.11-.4576v7.4576l1.65-1.65a.5011.5011 0 0 1 .7 0 .4949.4949 0 0 1 0 .71l-2.35 2.3589v6.1211a1.559 1.559 0 0 0 1.11-.46l1.11-1.11a.5613.5613 0 0 1 .4-.17h1.58a1.5619 1.5619 0 0 0 1.56-1.56v-1.58a.5608.5608 0 0 1 .17-.4l1.11-1.11a1.5751 1.5751 0 0 0 0-2.22z" fill="#4793ff"/></svg>